<svg width="16" height="16" viewBox="0 0 16 16" fill="none" xmlns="http://www.w3.org/2000/svg">
<path fill-rule="evenodd" clip-rule="evenodd" d="M6.6665 9.3335L0.666504 15.3335L6.6665 9.3335Z" fill="white" fill-opacity="0.01"/>
<path d="M6.6665 9.3335L0.666504 15.3335" stroke="white" stroke-linecap="round" stroke-linejoin="round"/>
<path fill-rule="evenodd" clip-rule="evenodd" d="M13.9957 5.85242C14.0807 5.93748 14.196 5.98527 14.3163 5.98527C14.4366 5.98527 14.5519 5.93748 14.637 5.85242L15.1456 5.34384C15.3959 5.0934 15.3959 4.68744 15.1456 4.437L11.5631 0.854521C11.3126 0.604157 10.9067 0.604157 10.6562 0.854521L10.1477 1.3631C10.0626 1.44813 10.0148 1.56348 10.0148 1.68376C10.0148 1.80404 10.0626 1.91939 10.1477 2.00443C10.2327 2.08947 10.2805 2.20482 10.2805 2.32509C10.2805 2.44537 10.2327 2.56072 10.1477 2.64576L7.44958 5.34384C7.32934 5.46412 7.16624 5.53171 6.99616 5.53175H4.96186C4.79178 5.53179 4.62868 5.59938 4.50844 5.71966L4.18777 6.04033C3.93741 6.29077 3.93741 6.69673 4.18777 6.94717L9.05291 11.8123C9.30335 12.0627 9.70931 12.0627 9.95975 11.8123L10.2804 11.4916C10.4007 11.3714 10.4683 11.2083 10.4683 11.0382V9.00456C10.4684 8.83448 10.536 8.67138 10.6562 8.55114L13.3543 5.85306C13.4393 5.76791 13.5546 5.72 13.6749 5.71988C13.7951 5.71976 13.9105 5.76744 13.9957 5.85242Z" fill="white" fill-opacity="0.01" stroke="white" stroke-linecap="round" stroke-linejoin="round"/>
</svg>
