<svg width="16" height="16" viewBox="0 0 16 16" fill="none" xmlns="http://www.w3.org/2000/svg">
<path d="M10.6665 14.6668H11.2591C12.4052 14.6668 13.3332 13.9789 13.3332 12.7326V11.3335" stroke="white" stroke-linecap="round" stroke-linejoin="round"/>
<path fill-rule="evenodd" clip-rule="evenodd" d="M12.6665 6C13.9649 5.99906 15.0749 6.95524 15.2945 8.26382C15.5142 9.5724 14.7795 10.8524 13.5551 11.2942C13.3513 11.3681 13.1251 11.3361 12.9484 11.2086C12.7717 11.081 12.6666 10.8737 12.6665 10.6525L12.6665 6Z" stroke="white" stroke-linecap="round" stroke-linejoin="round"/>
<path fill-rule="evenodd" clip-rule="evenodd" d="M3.33317 6C2.0348 5.99906 0.9248 6.95524 0.705158 8.26382C0.485515 9.5724 1.22019 10.8524 2.44455 11.2942C2.6484 11.3681 2.87462 11.3361 3.05128 11.2086C3.22794 11.081 3.33305 10.8737 3.33317 10.6525V6Z" stroke="white" stroke-linecap="round" stroke-linejoin="round"/>
<path d="M12.6663 6.66675V5.40359C12.6663 2.7875 10.577 0.666748 7.99967 0.666748C5.42235 0.666748 3.33301 2.7875 3.33301 5.40359V6.66675" stroke="white" stroke-linecap="round" stroke-linejoin="round"/>
<path fill-rule="evenodd" clip-rule="evenodd" d="M7.93907 14H10.3633C10.5307 14 10.6663 14.1492 10.6663 14.3333V15C10.6663 15.1841 10.5307 15.3333 10.3633 15.3333H7.93907C7.60435 15.3333 7.33301 15.0349 7.33301 14.6667V14.6667C7.33301 14.2985 7.60435 14 7.93907 14Z" stroke="white" stroke-linecap="round" stroke-linejoin="round"/>
</svg>
