<svg width="38" height="38" viewBox="0 0 38 38" fill="none" xmlns="http://www.w3.org/2000/svg">
<path d="M32.854 31.6666C32.854 35.4191 24.1457 36.4166 18.9998 36.4166C13.854 36.4166 5.14567 35.4191 5.14567 31.6666C5.14567 29.2837 8.65275 28.112 11.764 27.5341C8.46275 23.8924 5.14567 19.277 5.14567 15.4374C5.14567 7.79784 11.3603 1.58325 18.9998 1.58325C26.6394 1.58325 32.854 7.79784 32.854 15.4374C32.854 19.277 29.5369 23.8924 26.2357 27.5341C29.3469 28.112 32.854 29.2837 32.854 31.6666ZM30.479 15.4374C30.479 9.10409 25.3332 3.95825 18.9998 3.95825C12.6665 3.95825 7.52067 9.10409 7.52067 15.4374C7.52067 20.3537 15.2078 28.017 18.9998 31.3024C22.7919 28.017 30.479 20.3537 30.479 15.4374ZM24.2565 29.6241C21.9132 31.9833 19.9578 33.6062 19.7598 33.7724C19.5382 33.9545 19.269 34.0416 18.9998 34.0416C18.7307 34.0416 18.4615 33.9545 18.2478 33.7724C18.0419 33.6062 16.0865 31.9833 13.7511 29.6241C9.46025 30.1941 7.67109 31.2708 7.52067 31.627C7.75817 32.3158 11.5344 34.0416 18.9998 34.0416C26.4653 34.0416 30.2415 32.3158 30.4869 31.7062C30.3286 31.2787 28.5394 30.1941 24.2565 29.6241Z" fill="white"/>
<path d="M13.0625 15.4375C13.0625 12.16 15.7225 9.5 19 9.5C22.2775 9.5 24.9375 12.16 24.9375 15.4375C24.9375 18.715 22.2775 21.375 19 21.375C15.7225 21.375 13.0625 18.715 13.0625 15.4375ZM22.5625 15.4375C22.5625 13.4742 20.9633 11.875 19 11.875C17.0367 11.875 15.4375 13.4742 15.4375 15.4375C15.4375 17.4008 17.0367 19 19 19C20.9633 19 22.5625 17.4008 22.5625 15.4375Z" fill="white"/>
</svg>
