<svg width="18" height="18" viewBox="0 0 18 18" fill="none" xmlns="http://www.w3.org/2000/svg">
<g clip-path="url(#clip0)">
<path d="M17.4864 0H0.513823C0.252769 0.00374003 0.044263 0.218418 0.048003 0.479471V17.5157C0.041458 17.7767 0.247907 17.9936 0.508961 18H13.3316C13.462 17.9989 13.5863 17.945 13.6763 17.8508L17.8245 13.5402C17.9089 13.4497 17.9547 13.33 17.9523 13.2064V0.484334C17.9588 0.22328 17.7524 0.00635802 17.4913 0L17.4864 0ZM1.00545 0.957447H16.9948V12.734H13.3316C13.0672 12.734 12.8299 12.942 12.8299 13.2064V17.0426H1.00545V0.957447ZM16.3598 13.6915L13.7874 16.3293V13.6915H16.3598Z" fill="#0F1C49"/>
<path d="M3.46212 8.37761H14.2429C14.5074 8.37761 14.7217 8.16331 14.7217 7.89889C14.7217 7.63447 14.5074 7.42017 14.2429 7.42017H3.46212C3.1977 7.42017 2.9834 7.63447 2.9834 7.89889C2.9834 8.16331 3.1977 8.37761 3.46212 8.37761Z" fill="#0F1C49"/>
<path d="M3.46212 5.31389H9.82035C10.0846 5.31389 10.2991 5.09959 10.2991 4.83517C10.2991 4.57075 10.0846 4.35645 9.82035 4.35645H3.46212C3.1977 4.35645 2.9834 4.57075 2.9834 4.83517C2.9834 5.09959 3.1977 5.31389 3.46212 5.31389Z" fill="#0F1C49"/>
<path d="M14.2429 11.3459C14.5074 11.3459 14.7217 11.1316 14.7217 10.8671C14.7217 10.6027 14.5074 10.3884 14.2429 10.3884H3.46212C3.1977 10.3884 2.9834 10.6027 2.9834 10.8671C2.9834 11.1316 3.1977 11.3459 3.46212 11.3459H14.2429Z" fill="#0F1C49"/>
</g>
<defs>
<clipPath id="clip0">
<rect width="18" height="18" fill="white"/>
</clipPath>
</defs>
</svg>
