<svg width="32" height="32" viewBox="0 0 32 32" fill="none" xmlns="http://www.w3.org/2000/svg">
<path d="M24.7091 19.584C24.0949 18.9445 23.3541 18.6026 22.569 18.6026C21.7902 18.6026 21.0431 18.9382 20.4036 19.5777L18.4027 21.5722C18.2381 21.4835 18.0735 21.4012 17.9152 21.3189C17.6873 21.2049 17.472 21.0973 17.2884 20.9833C15.4142 19.793 13.7109 18.2417 12.0774 16.2345C11.2859 15.2341 10.754 14.392 10.3678 13.5372C10.887 13.0624 11.3682 12.5685 11.8368 12.0936C12.0141 11.9163 12.1913 11.7327 12.3686 11.5554C13.6983 10.2258 13.6983 8.50353 12.3686 7.17388L10.6401 5.44532C10.4438 5.24904 10.2412 5.04642 10.0512 4.84381C9.67132 4.45124 9.27242 4.04601 8.86086 3.66611C8.24669 3.05827 7.51221 2.73535 6.73974 2.73535C5.96727 2.73535 5.22013 3.05827 4.58696 3.66611C4.58063 3.67244 4.58063 3.67244 4.5743 3.67878L2.42152 5.85055C1.61106 6.66101 1.14885 7.64876 1.04754 8.79479C0.895577 10.6437 1.4401 12.3659 1.858 13.4929C2.88373 16.2599 4.41601 18.8242 6.70175 21.5722C9.47504 24.8837 12.8118 27.4986 16.6235 29.3412C18.0798 30.0313 20.0237 30.8481 22.1954 30.9874C22.3284 30.9938 22.4677 31.0001 22.5943 31.0001C24.057 31.0001 25.2853 30.4746 26.2477 29.4298C26.2541 29.4172 26.2667 29.4108 26.2731 29.3982C26.6023 28.9993 26.9822 28.6384 27.3811 28.2521C27.6534 27.9925 27.932 27.7203 28.2042 27.4353C28.8311 26.7832 29.1603 26.0234 29.1603 25.2446C29.1603 24.4594 28.8247 23.706 28.1852 23.0728L24.7091 19.584ZM26.9759 26.2513C26.9695 26.2513 26.9695 26.2576 26.9759 26.2513C26.7289 26.5172 26.4757 26.7578 26.2034 27.0238C25.7918 27.4163 25.374 27.8279 24.9814 28.2901C24.3419 28.9739 23.5884 29.2969 22.6007 29.2969C22.5057 29.2969 22.4044 29.2969 22.3094 29.2905C20.4289 29.1702 18.6813 28.4357 17.3707 27.8089C13.7869 26.074 10.6401 23.611 8.02508 20.4895C5.86597 17.8871 4.42234 15.4811 3.46625 12.8977C2.8774 11.3211 2.66212 10.0928 2.7571 8.93409C2.82042 8.19328 3.10534 7.57911 3.63087 7.05358L5.78999 4.89446C6.10024 4.6032 6.42949 4.44491 6.75241 4.44491C7.1513 4.44491 7.47422 4.68552 7.67684 4.88813C7.68317 4.89446 7.6895 4.90079 7.69583 4.90713C8.08206 5.26803 8.4493 5.6416 8.83554 6.0405C9.03182 6.24312 9.23443 6.44573 9.43705 6.65468L11.1656 8.38323C11.8368 9.05439 11.8368 9.6749 11.1656 10.3461C10.982 10.5297 10.8047 10.7133 10.6211 10.8906C10.0892 11.4351 9.58268 11.9417 9.03182 12.4355C9.01916 12.4482 9.00649 12.4545 9.00016 12.4672C8.45563 13.0117 8.55694 13.5436 8.67091 13.9045C8.67724 13.9235 8.68358 13.9425 8.68991 13.9615C9.13946 15.0505 9.77263 16.0763 10.735 17.2983L10.7414 17.3046C12.4889 19.4574 14.3315 21.1353 16.3639 22.4206C16.6235 22.5852 16.8895 22.7182 17.1427 22.8448C17.3707 22.9588 17.586 23.0665 17.7696 23.1804C17.7949 23.1931 17.8202 23.2121 17.8456 23.2248C18.0608 23.3324 18.2634 23.383 18.4724 23.383C18.9979 23.383 19.3272 23.0538 19.4348 22.9462L21.6003 20.7807C21.8155 20.5654 22.1574 20.3058 22.5563 20.3058C22.9489 20.3058 23.2718 20.5528 23.4681 20.768C23.4744 20.7744 23.4744 20.7744 23.4808 20.7807L26.9695 24.2695C27.6217 24.9153 27.6217 25.5801 26.9759 26.2513Z" fill="white" stroke="white"/>
<path d="M17.2124 8.13611C18.8713 8.4147 20.3782 9.19983 21.5812 10.4029C22.7843 11.6059 23.5631 13.1128 23.848 14.7717C23.9176 15.1896 24.2786 15.4809 24.6901 15.4809C24.7408 15.4809 24.7851 15.4746 24.8357 15.4682C25.3043 15.3922 25.6145 14.949 25.5386 14.4805C25.1966 12.4733 24.2469 10.6435 22.7969 9.1935C21.347 7.74354 19.5171 6.79379 17.51 6.45187C17.0414 6.37589 16.6045 6.68615 16.5222 7.14836C16.4399 7.61058 16.7438 8.06013 17.2124 8.13611Z" fill="white" stroke="white"/>
<path d="M30.9649 14.2336C30.4014 10.9285 28.8438 7.92092 26.4504 5.52754C24.057 3.13415 21.0495 1.57655 17.7443 1.01303C17.2821 0.930719 16.8452 1.2473 16.7629 1.70952C16.6869 2.17807 16.9972 2.61495 17.4657 2.69727C20.4163 3.19747 23.1073 4.59678 25.2474 6.73056C27.3875 8.87068 28.7805 11.5617 29.2807 14.5122C29.3503 14.9301 29.7112 15.2214 30.1228 15.2214C30.1735 15.2214 30.2178 15.215 30.2684 15.2087C30.7306 15.1391 31.0472 14.6958 30.9649 14.2336Z" fill="white" stroke="white"/>
</svg>
