<svg width="110" height="110" viewBox="0 0 110 110" fill="none" xmlns="http://www.w3.org/2000/svg">
<path d="M78.1167 67.5663C77.1315 66.6839 75.6178 66.77 74.7402 67.7528C69.7519 73.3269 62.5589 76.5217 55 76.5217C47.4435 76.5217 40.248 73.3269 35.2598 67.7528C34.3774 66.77 32.8685 66.6839 31.8832 67.5663C30.898 68.4463 30.8167 69.9576 31.6967 70.9428C37.5913 77.5285 46.0852 81.3043 55 81.3043C63.9172 81.3043 72.4111 77.5261 78.3032 70.9428C79.1832 69.9576 79.0996 68.4463 78.1167 67.5663Z" fill="#EBBD62"/>
<path d="M55 0C24.6735 0 0 24.6735 0 55C0 85.3265 24.6735 110 55 110C85.3265 110 110 85.3265 110 55C110 24.6735 85.3265 0 55 0ZM55 105.217C27.3087 105.217 4.78261 82.6913 4.78261 55C4.78261 27.3087 27.3087 4.78261 55 4.78261C82.6913 4.78261 105.217 27.3087 105.217 55C105.217 82.6913 82.6913 105.217 55 105.217Z" fill="#EBBD62"/>
<path d="M74.1303 38.2609C67.5375 38.2609 62.1738 43.6246 62.1738 50.2174C62.1738 51.5374 63.2451 52.6087 64.5651 52.6087C65.8851 52.6087 66.9564 51.5374 66.9564 50.2174C66.9564 46.2622 70.1751 43.0435 74.1303 43.0435C78.0856 43.0435 81.3043 46.2622 81.3043 50.2174C81.3043 51.5374 82.3756 52.6087 83.6956 52.6087C85.0156 52.6087 86.0869 51.5374 86.0869 50.2174C86.0869 43.6246 80.7232 38.2609 74.1303 38.2609Z" fill="#EBBD62"/>
<path d="M43.0435 50.2174C43.0435 51.5374 44.1148 52.6087 45.4348 52.6087C46.7548 52.6087 47.8261 51.5374 47.8261 50.2174C47.8261 43.6246 42.4624 38.2609 35.8696 38.2609C29.2768 38.2609 23.9131 43.6246 23.9131 50.2174C23.9131 51.5374 24.9844 52.6087 26.3044 52.6087C27.6244 52.6087 28.6957 51.5374 28.6957 50.2174C28.6957 46.2622 31.9144 43.0435 35.8696 43.0435C39.8248 43.0435 43.0435 46.2622 43.0435 50.2174Z" fill="#EBBD62"/>
</svg>
