<svg width="23" height="21" viewBox="0 0 23 21" fill="none" xmlns="http://www.w3.org/2000/svg">
<path d="M11.1521 0.613201C11.3054 0.343051 11.6946 0.343051 11.8479 0.613201L15.074 6.29935C15.131 6.39978 15.2286 6.47068 15.3417 6.49384L21.7465 7.80492C22.0507 7.86721 22.171 8.23742 21.9615 8.46667L17.5505 13.292C17.4726 13.3772 17.4354 13.4919 17.4483 13.6067L18.1806 20.1031C18.2154 20.4118 17.9004 20.6406 17.6176 20.5121L11.6654 17.8082C11.5603 17.7604 11.4397 17.7604 11.3346 17.8082L5.38236 20.5121C5.09957 20.6406 4.78465 20.4118 4.81944 20.1031L5.55171 13.6067C5.56464 13.4919 5.52737 13.3772 5.44946 13.292L1.03853 8.46667C0.828966 8.23742 0.949256 7.86721 1.25355 7.80492L7.65832 6.49384C7.77143 6.47068 7.86903 6.39978 7.926 6.29935L11.1521 0.613201Z" fill="#DAC400"/>
</svg>
